<?xml version="1.0" encoding="utf-8"?>
<!-- Svg Vector Icons : http://www.onlinewebfonts.com/icon -->
<!DOCTYPE svg PUBLIC "-//W3C//DTD SVG 1.1//EN" "http://www.w3.org/Graphics/SVG/1.1/DTD/svg11.dtd">
<svg version="1.1" xmlns="http://www.w3.org/2000/svg" xmlns:xlink="http://www.w3.org/1999/xlink" x="0px" y="0px" viewBox="0 0 1000 1000" enable-background="new 0 0 1000 1000" xml:space="preserve">
<metadata> Svg Vector Icons : http://www.onlinewebfonts.com/icon </metadata>
<g><g><path d="M623.6,290.2c10.8,0,19.6-8.7,19.6-19.6c0-10.8-8.8-19.6-19.6-19.6H355.1c-10.8,0-19.6,8.7-19.6,19.6c0,10.8,8.8,19.6,19.6,19.6H623.6z"/><path d="M892.9,251.1H759.7c-10.8,0-19.6,8.7-19.6,19.6c0,10.8,8.8,19.6,19.6,19.6h113.6v660.7H126.7V290.2h107.1c10.8,0,19.6-8.7,19.6-19.6c0-10.8-8.8-19.6-19.6-19.6H107.1c-10.8,0-19.6,8.7-19.6,19.6v699.8c0,10.8,8.8,19.6,19.6,19.6h785.7c10.8,0,19.6-8.7,19.6-19.6V270.7C912.4,259.9,903.7,251.1,892.9,251.1z"/><path d="M689.7,334.2c10.8,0,19.6-8.7,19.6-19.6V172.1C709.2,82.7,612.7,10,493.7,10c-118.6,0-215.1,72.7-215.1,162.1v142.6c0,10.8,8.8,19.6,19.6,19.6s19.6-8.7,19.6-19.6V172.1c0-67.8,78.9-123,176.4-123c97,0,176,55.2,176,123v142.6C670.1,325.5,678.9,334.2,689.7,334.2z"/><path d="M247.9,364.9c0,27.7,22.6,50.3,50.3,50.3c27.7,0,50.3-22.6,50.3-50.3c0-10.8-8.8-19.6-19.6-19.6c-10.8,0-19.6,8.7-19.6,19.6c0,6.2-5,11.2-11.2,11.2c-6.2,0-11.2-5-11.2-11.2c0-10.8-8.8-19.6-19.6-19.6C256.6,345.4,247.9,354.1,247.9,364.9z"/><path d="M689.7,415.2c27.7,0,50.3-22.6,50.3-50.3c0-10.8-8.8-19.6-19.6-19.6s-19.6,8.7-19.6,19.6c0,6.2-5,11.2-11.2,11.2c-6.2,0-11.2-5-11.2-11.2c0-10.8-8.8-19.6-19.6-19.6s-19.6,8.7-19.6,19.6C639.4,392.6,661.9,415.2,689.7,415.2z"/></g><g></g><g></g><g></g><g></g><g></g><g></g><g></g><g></g><g></g><g></g><g></g><g></g><g></g><g></g><g></g></g>
</svg>